<svg height='1em' width='1em'  fill="currentColor" xmlns="http://www.w3.org/2000/svg" viewBox="0 0 30 30" >
<path d="M1.95948273,21.9854124 L14.3994747,27.996043 C14.9999996,28.2103279 14.9999996,28.2114265 15.5999756,27.9960424 L28.0405183,21.9854124 L28.0405182,10.2872608 L15.8499756,16.0309605 L15,16.4267648 L14.1500244,16.0172979 L1.95948273,10.2872608 L1.95948273,21.9854124 Z M30.0015421,7.21573455 L30.0015421,23.1671295 L16.155971,29.7189576 C15.8564983,29.8972222 15.3060303,30.0000001 15.0200196,30.0000001 C14.7340088,30.0000001 14.2000122,29.8999939 13.8491211,29.7200012 L0.00154214311,23.1671295 L0.00154211081,7.21573455 L15.0200195,14.3007862 L30.0015421,7.21573455 Z M9.58554502,22.760472 L11.7274417,24.9026451 C12.4228828,25.598176 13.5502479,25.6144674 14.2540396,24.9259969 L20.4052082,18.9087363 C20.791728,18.5306308 20.7985887,17.9107391 20.420532,17.5241694 C20.0424754,17.1375996 19.4226636,17.130738 19.0361438,17.5088435 L12.8849753,23.5261042 C12.9537985,23.4587792 13.0541583,23.4602295 13.1119147,23.5179934 L10.9700181,21.3758203 C10.5877064,20.9934592 9.96785669,20.9934592 9.58554502,21.3758203 C9.20323335,21.7581813 9.20323335,22.378111 9.58554502,22.760472 L9.58554502,22.760472 Z M13.1199951,0.45897924 L0,7.21573458 L2.21081543,8.25879494 L14.0800171,2.12473559 C14.8499756,1.83999634 15.1617273,1.8434756 15.9899902,2.10685797 L27.7931519,8.25879494 L30,7.21573458 L16.9199829,0.459991455 C15.5000593,-0.153322183 14.5393066,-0.149993896 13.1199951,0.45897924 Z" ></path>
</svg>
